<svg width="2012" height="562" viewBox="0 0 2012 562" fill="none" xmlns="http://www.w3.org/2000/svg">
<path d="M1860.46 225.539H1825.19L1802.1 322.563C1800.09 330.972 1801.35 335.867 1808.25 335.867C1815.03 335.867 1824.07 330.847 1838.37 308.881L1843.52 313.023C1830.47 338.127 1815.15 357.707 1790.3 357.707C1774.36 357.707 1766.7 346.913 1771.98 325.073L1795.95 225.539H1772.98L1774.49 218.385L1799.21 211.984L1806.37 181.985C1809.13 169.936 1817.79 165.543 1826.32 165.543C1830.84 165.543 1835.24 166.296 1838.88 168.304L1828.58 211.733H1862.72C1864.1 215.624 1863.35 221.397 1860.46 225.539Z" fill="#182457"/>
<path d="M1685.6 357.707C1666.65 357.707 1647.19 351.054 1647.19 333.859C1647.19 325.449 1651.71 319.048 1661.25 317.04C1671.42 331.85 1684.97 341.641 1698.91 341.641C1709.95 341.641 1717.11 335.992 1717.11 326.077C1717.11 317.793 1712.21 310.764 1700.66 299.97L1686.73 288.046C1675.94 278.13 1666.65 269.093 1666.65 252.525C1666.65 225.288 1692.13 207.59 1721.37 207.59C1742.46 207.59 1757.52 216.878 1757.52 229.932C1757.52 238.718 1750.99 244.617 1742.59 245.119C1730.41 231.187 1719.36 223.782 1707.32 223.782C1697.27 223.782 1690.62 229.053 1690.62 239.597C1690.62 249.512 1696.65 254.282 1704.68 261.687L1718.86 273.611C1729.28 282.523 1741.08 292.564 1741.08 311.894C1741.08 338.252 1717.61 357.707 1685.6 357.707Z" fill="#182457"/>
<path d="M1645.79 207.716C1653.83 207.716 1659.85 212.987 1659.85 221.522C1659.85 228.426 1657.59 233.823 1652.82 238.216C1630.73 236.459 1614.92 247.002 1598.22 272.105L1578.64 353.565C1574.37 356.326 1568.47 357.832 1562.58 357.832C1552.66 357.832 1549.77 352.058 1552.16 342.394L1567.47 279.009C1570.99 264.323 1573.24 252.274 1574.75 240.475C1567.09 236.961 1560.57 231.689 1556.17 226.794L1557.05 222.903C1571.99 219.891 1586.17 214.996 1602.11 207.716H1604C1603.37 222.401 1602.24 238.718 1598.6 256.29C1616.3 219.138 1631.23 207.716 1645.79 207.716Z" fill="#182457"/>
<path d="M1511.57 335.114C1517.34 335.114 1524.62 328.587 1536.67 305.743L1543.32 308.881C1533.03 336.745 1516.71 357.707 1493.49 357.707C1475.17 357.707 1473.79 344.904 1478.55 326.077L1504.29 225.539H1454.96L1431.49 344.276C1424.58 378.668 1405.25 403.52 1372.12 420.464L1367.98 414.816C1386.8 395.361 1396.34 375.906 1401.86 346.912L1425.34 225.539H1402.87L1404.5 218.51L1427.97 211.983L1430.48 199.055C1439.14 154.748 1466.38 126.507 1507.17 126.507C1527.88 126.507 1544.32 136.172 1544.32 149.351C1544.32 159.769 1536.92 165.668 1525 165.041C1517.09 148.849 1505.79 141.946 1492.86 141.946C1473.16 141.946 1468.26 158.012 1461.99 190.018L1457.72 211.732H1507.55L1535.66 208.469H1537.42L1509.05 322.813C1507.55 328.587 1505.92 335.114 1511.57 335.114Z" fill="#182457"/>
<path d="M1339.84 211.983V208.72H1392.55V211.983L1377.62 217.255L1343.85 323.064C1328.92 369.379 1304.06 418.958 1266.91 418.958C1252.1 418.958 1242.94 411.05 1242.94 399.252C1242.94 394.984 1243.94 390.968 1245.95 387.83C1280.34 394.859 1307.45 384.818 1323.52 355.447C1314.98 356.2 1305.44 355.949 1297.04 354.317L1249.47 216.376L1234.4 211.983V208.72H1322.52V211.983L1297.29 216.376L1323.77 294.321C1327.28 304.99 1330.67 315.659 1334.06 326.328C1337.33 315.157 1340.46 304.362 1343.73 292.313C1351.38 266.457 1358.29 242.609 1364.31 217.255L1339.84 211.983Z" fill="#182457"/>
<path d="M1234.12 354.945H1157.43V351.682L1175.13 347.289V162.028C1168.48 158.012 1161.82 153.368 1155.3 148.472V147.092C1176.38 140.942 1195.46 134.54 1216.8 126.507H1217.55V347.289L1234.12 351.682V354.945Z" fill="#182457"/>
<path d="M1066.89 358.083C1060.11 358.083 1053.71 357.456 1047.68 356.326V412.934L1071.41 417.327V420.59H988.19V417.327L1005.39 412.934V241.731C999.235 237.714 993.21 233.196 987.311 228.301V227.297C1007.14 220.268 1022.71 213.741 1042.54 203.951H1043.29C1045.93 213.992 1047.18 224.284 1047.43 233.572C1055.47 214.117 1071.66 204.704 1091.24 204.704C1124.88 204.704 1144.71 231.439 1144.71 274.741C1144.71 328.211 1114.96 358.083 1066.89 358.083ZM1068.39 230.183C1061.24 230.183 1054.46 231.941 1047.68 236.585V329.968C1051.83 345.783 1059.98 351.306 1070.15 351.306C1089.61 351.306 1100.4 330.345 1100.4 289.301C1100.4 245.496 1088.35 229.932 1068.39 230.183Z" fill="#182457"/>
<path d="M967.911 259.177V347.415L983.099 351.682V354.946H909.798V351.682L925.613 347.289V256.165C925.613 239.974 919.462 231.941 904.024 231.941C895.614 231.941 888.335 234.702 880.804 240.099C881.933 246.124 882.31 252.525 882.31 259.177V347.289L897.246 351.682V354.946H824.196V351.682L840.011 347.289V256.165C840.011 239.974 833.861 231.941 818.674 231.941C810.641 231.941 803.612 234.451 796.457 239.472V347.289L812.147 351.682V354.946H736.963V351.682L754.159 347.289V241.731C748.008 237.714 741.984 233.196 736.084 228.301V227.297C755.916 220.268 771.48 213.741 791.311 203.951H792.064C794.7 214.368 796.081 225.539 796.206 234.953C805.871 213.992 822.188 204.704 841.015 204.704C864.989 204.704 875.783 217.883 880.051 236.083C890.092 214.368 906.911 204.704 926.24 204.704C960.004 204.704 967.911 230.309 967.911 259.177Z" fill="#182457"/>
<path d="M651.408 358.962C607.603 358.962 578.86 331.349 578.86 281.77C578.86 232.317 607.603 204.704 651.408 204.704C695.339 204.704 724.082 232.317 724.082 281.77C724.082 331.349 695.339 358.962 651.408 358.962ZM651.408 353.314C669.608 353.314 678.645 332.729 678.645 281.77C678.645 231.062 669.608 210.352 651.408 210.352C633.334 210.352 624.297 231.062 624.297 281.77C624.297 332.729 633.334 353.314 651.408 353.314Z" fill="#182457"/>
<path d="M501.943 358.962C456.883 358.962 433.538 325.575 433.538 280.013C433.538 229.807 459.017 204.704 504.454 204.704C542.234 204.704 561.061 219.765 561.061 241.229C561.061 256.541 551.396 263.445 536.711 263.57C531.063 263.57 525.164 262.064 520.52 259.554C525.038 222.15 517.131 210.352 504.203 210.352C487.007 210.352 477.342 228.803 477.342 262.943C477.342 304.488 492.404 329.215 521.524 329.215C536.084 329.215 547.882 322.814 559.68 309.258L561.061 310.011C553.53 344.528 530.561 358.962 501.943 358.962Z" fill="#182457"/>
<path d="M283.754 336.023V305.628C283.754 293.398 290.277 282.092 300.866 275.971L391.02 223.866V254.262C391.02 266.492 384.497 277.798 373.908 283.918L283.754 336.023Z" fill="#8F43E2"/>
<path d="M283.754 409.741V379.357C283.754 367.116 290.288 355.81 300.887 349.689L391.02 297.682V328.067C391.02 340.308 384.486 351.614 373.887 357.734L283.754 409.741Z" fill="#8F43E2"/>
<path d="M196.101 297.157C209.886 304.528 223.464 312.268 236.868 320.302C243.075 324.02 249.478 327.607 255.36 331.825C257.49 333.358 259.523 334.999 261.48 336.739C261.969 337.021 262.459 337.304 262.948 337.598C263.165 333.564 263.698 329.531 264.22 325.509C264.22 325.433 264.22 325.368 264.22 325.291C264.154 320.508 264.231 316.008 264.1 314.442C263.317 305.56 262.089 296.461 257.936 288.438C248.37 269.914 227.573 262.522 210.69 252.499C191.786 241.269 170.946 231.289 152.845 218.037C152.845 218.037 153.563 227.712 153.487 230.648C153.16 244.28 154.726 263.294 162.912 274.632C166.902 280.155 172.62 284.383 178.729 288.177C184.556 291.113 190.361 294.091 196.112 297.168L196.101 297.157Z" fill="#182457"/>
<path d="M263.904 402.614C263.056 379.165 260.914 356.553 240.661 340.921C229.899 332.615 217.441 327.843 205.504 321.69C195.242 316.396 185.067 310.873 175.315 304.655C171.739 302.372 150.203 290.403 150.214 286.25C150.312 298.034 148.757 310.166 150.486 321.853C152.345 334.463 159.085 344.845 168.89 352.77C183.762 364.783 201.634 373.904 218.778 382.97C227.594 387.634 236.4 392.352 244.836 397.679C247.021 399.059 264.132 408.506 264.187 410.876C264.1 408.115 264.013 405.354 263.915 402.603L263.904 402.614Z" fill="#182457"/>
<path d="M373.068 201.026C369.035 198.395 364.751 196.199 360.37 194.221C351.619 190.242 341.726 186.839 331.975 187.763C325.191 188.405 318.647 191.199 312.287 194.547C306.808 198.091 301.297 201.58 295.731 204.983C282.403 213.136 268.847 220.931 255.138 228.421C248.789 231.889 242.451 235.596 235.831 238.531C233.428 239.597 230.982 240.521 228.504 241.314C228.015 241.597 227.515 241.869 227.025 242.151C230.395 244.38 233.602 246.88 236.809 249.37C236.875 249.402 236.94 249.446 236.994 249.479C241.147 251.838 244.995 254.186 246.409 254.86C254.464 258.686 262.933 262.219 271.956 262.709C292.774 263.839 309.678 249.642 326.866 240.151C345.401 229.921 363.86 217.572 383.591 208.723C383.178 208.408 377.623 203.983 373.057 201.015L373.068 201.026Z" fill="#41CFBA"/>
<path d="M320.962 171.892C322.636 171.001 324.387 170.251 326.191 169.62C316.614 163.913 307.417 157.031 297.078 152.857C285.262 148.084 272.901 148.639 261.095 153.085C243.201 159.836 226.297 170.631 209.805 180.817C201.326 186.057 192.803 191.265 183.932 195.841C181.627 197.026 164.831 206.995 162.744 205.854C165.168 207.169 167.593 208.495 170.017 209.811C179.149 214.735 188.498 219.551 198.532 222.41C209.033 225.4 218.024 225.487 228.243 221.638C253.92 211.974 275.141 195.363 299.35 182.992C301.97 181.654 312.918 175.262 320.614 172.142C320.723 172.055 320.843 171.968 320.962 171.903V171.892Z" fill="#41CFBA"/>
</svg>
